<svg width="32" height="32" viewBox="0 0 32 32" fill="none" xmlns="http://www.w3.org/2000/svg">
  <rect width="32" height="32" rx="6" fill="#F472B6"/>
  <path d="M8 12C8 9.79086 9.79086 8 12 8C14.2091 8 16 9.79086 16 12C16 14.2091 14.2091 16 12 16C9.79086 16 8 14.2091 8 12Z" fill="white"/>
  <path d="M16 8C16 5.79086 17.7909 4 20 4C22.2091 4 24 5.79086 24 8C24 10.2091 22.2091 12 20 12C17.7909 12 16 10.2091 16 8Z" fill="white"/>
  <path d="M24 16C24 13.7909 25.7909 12 28 12C30.2091 12 32 13.7909 32 16C32 18.2091 30.2091 20 28 20C25.7909 20 24 18.2091 24 16Z" fill="white"/>
  <path d="M8 20C8 17.7909 9.79086 16 12 16C14.2091 16 16 17.7909 16 20C16 22.2091 14.2091 24 12 24C9.79086 24 8 22.2091 8 20Z" fill="white"/>
  <path d="M16 20C16 17.7909 17.7909 16 20 16C22.2091 16 24 17.7909 24 20C24 22.2091 22.2091 24 20 24C17.7909 24 16 22.2091 16 20Z" fill="white"/>
</svg>
